<svg preserveAspectRatio="xMidYMid meet" viewBox="25.344 256.743424 991.232 491.52" xmlns="http://www.w3.org/2000/svg" version="1.0" style="max-height: 500px" width="991.232" height="491.52">

<g stroke="none" fill="#000000" transform="translate(0.000000,1024.000000) scale(0.100000,-0.100000)">
<path d="M6768 7290 c-314 -18 -482 -63 -688 -185 l-55 -32 -385 -6 c-1245&#10;-20 -1773 -119 -2287 -431 -92 -56 -353 -237 -468 -325 -85 -65 -341 -285&#10;-467 -403 l-108 -100 -25 31 c-14 16 -42 35 -63 42 -54 19 -196 16 -265 -4&#10;-96 -29 -177 -121 -177 -202 0 -43 32 -107 70 -138 18 -15 31 -29 29 -31 -2&#10;-1 -51 -20 -109 -41 -407 -147 -749 -324 -907 -469 -87 -79 -166 -213 -212&#10;-358 -7 -20 -30 -60 -53 -88 -67 -84 -69 -102 -78 -495 -10 -431 -3 -484 67&#10;-521 34 -18 38 -24 59 -112 33 -135 85 -233 164 -312 36 -36 74 -70 85 -77 16&#10;-9 -12 -12 -145 -13 -91 -1 -203 -5 -250 -9 l-85 -7 80 -7 c75 -7 182 -11 995&#10;-37 173 -6 632 -22 1020 -35 388 -14 917 -31 1175 -40 259 -8 632 -20 830 -26&#10;605 -20 2317 -5 4180 36 751 16 948 23 1015 32 l45 7 -50 7 c-27 4 -150 11&#10;-273 15 l-223 7 56 31 c94 50 179 166 243 332 33 85 62 221 62 288 0 39 3 43&#10;48 68 26 15 63 42 83 60 30 28 38 43 44 88 4 35 22 82 47 128 51 93 65 172 74&#10;407 8 212 4 231 -67 309 -60 66 -64 76 -78 211 -44 424 -52 464 -116 600 -50&#10;109 -107 180 -420 535 -66 74 -200 217 -298 316 l-178 182 21 81 c35 140 60&#10;271 60 322 0 53 -20 111 -48 142 -83 92 -502 178 -1032 212 -289 18 -754 25&#10;-942 15z m-828 -268 c-51 -35 -159 -133 -193 -174 -47 -58 -84 -135 -104 -215&#10;-13 -53 -17 -119 -17 -303 -2 -444 23 -492 262 -512 67 -5 126 -15 139 -23 22&#10;-15 48 -81 59 -150 l6 -40 -154 -1 c-169 -2 -332 -17 -405 -39 -71 -21 -126&#10;-67 -182 -151 -71 -106 -108 -189 -116 -261 -6 -58 -5 -64 19 -88 16 -16 36&#10;-25 56 -25 25 0 30 -3 26 -17 -3 -10 -13 -51 -22 -91 -9 -42 -25 -84 -38 -99&#10;l-23 -26 -210 -1 c-201 -1 -213 -2 -241 -23 l-30 -22 -42 39 c-84 78 -213 101&#10;-327 59 -114 -43 -238 -201 -296 -379 -45 -136 -67 -330 -67 -586 l0 -184&#10;-269 0 -269 0 9 38 c15 63 10 105 -21 197 -34 102 -47 224 -36 357 l8 85 211&#10;6 c186 5 214 8 236 25 37 27 40 76 7 97 -23 15 -49 16 -242 10 -208 -7 -216&#10;-7 -211 11 3 11 8 62 12 114 19 287 81 693 121 788 31 74 94 160 122 166 15 3&#10;135 24 267 46 515 87 896 175 1021 235 112 54 159 122 219 320 56 184 115 421&#10;115 463 0 44 -20 76 -61 97 -96 50 -566 103 -799 91 -256 -14 -538 -64 -746&#10;-132 -136 -44 -343 -143 -471 -225 -227 -145 -626 -466 -859 -692 -40 -38 -68&#10;-58 -80 -55 -14 2 20 39 131 142 474 439 880 725 1248 878 221 93 398 137 707&#10;177 333 44 985 83 1465 89 88 1 89 0 65 -16z m-1328 -279 c-40 -2 -103 -2&#10;-140 0 -37 2 -4 3 73 3 77 0 107 -2 67 -3z m181 -10 c-13 -2 -33 -2 -45 0 -13&#10;2 -3 4 22 4 25 0 35 -2 23 -4z m94 -9 c-3 -3 -12 -4 -19 -1 -8 3 -5 6 6 6 11&#10;1 17 -2 13 -5z m-822 -143 c-132 -201 -360 -624 -416 -770 -8 -20 -14 -22 -42&#10;-17 -17 4 -82 9 -143 13 -96 5 -117 3 -165 -14 -30 -11 -119 -35 -199 -53 -80&#10;-17 -186 -47 -236 -66 -51 -19 -98 -34 -105 -34 -28 1 204 83 284 100 31 7 57&#10;17 57 22 0 5 10 6 23 3 12 -3 45 1 72 8 l50 14 -77 -2 c-43 -1 -84 -8 -92 -14&#10;-9 -7 -17 -8 -20 -2 -3 5 0 12 6 14 7 3 -2 6 -19 6 -18 1 -33 -3 -33 -7 0 -5&#10;-6 -9 -14 -9 -8 0 -15 3 -14 6 2 19 -4 22 -17 11 -11 -9 -15 -9 -15 -1 0 7 -4&#10;9 -10 6 -5 -3 -10 -1 -10 5 0 7 -7 10 -15 6 -8 -3 -30 1 -48 9 -19 8 -37 11&#10;-41 8 -3 -4 -6 -1 -6 6 0 7 -4 10 -9 7 -5 -3 -7 -16 -5 -29 4 -18 3 -19 -4 -4&#10;-7 16 -24 4 -122 -83 l-115 -102 85 84 c252 249 666 565 911 697 99 54 156 72&#10;323 106 l138 29 54 80 c29 44 52 81 50 83 -5 5 -143 -25 -261 -58 -152 -42&#10;-284 -92 -395 -151 -119 -62 -370 -230 -515 -343 -60 -47 -92 -70 -70 -49 60&#10;54 257 201 370 276 195 128 343 200 516 253 93 27 372 94 377 90 2 -1 -36 -62&#10;-83 -134z m898 132 c-7 -2 -19 -2 -25 0 -7 3 -2 5 12 5 14 0 19 -2 13 -5z&#10;m1735 -230 c-21 -2 -57 -2 -80 0 -24 2 -7 4 37 4 44 0 63 -2 43 -4z m675 0&#10;c-18 -2 -48 -2 -65 0 -18 2 -4 4 32 4 36 0 50 -2 33 -4z m-896 -9 c-3 -3 -12&#10;-4 -19 -1 -8 3 -5 6 6 6 11 1 17 -2 13 -5z m1076 -1 c-7 -2 -19 -2 -25 0 -7 3&#10;-2 5 12 5 14 0 19 -2 13 -5z m110 -10 c-7 -2 -19 -2 -25 0 -7 3 -2 5 12 5 14&#10;0 19 -2 13 -5z m120 -10 c-7 -2 -21 -2 -30 0 -10 3 -4 5 12 5 17 0 24 -2 18&#10;-5z m-2803 -39 c63 -10 105 -20 92 -22 -16 -2 -22 -8 -18 -19 3 -8 6 -49 7&#10;-91 1 -75 1 -76 15 -47 l15 30 -6 -30 c-3 -16 -18 -55 -33 -85 -23 -46 -36&#10;-59 -87 -86 -33 -17 -72 -35 -87 -38 -26 -6 -28 -4 -28 23 0 52 -39 155 -78&#10;206 -21 28 -58 61 -82 75 -41 23 -55 25 -151 23 l-107 -1 29 43 c17 26 39 45&#10;52 47 52 7 361 -11 467 -28z m3013 19 c-7 -2 -19 -2 -25 0 -7 3 -2 5 12 5 14&#10;0 19 -2 13 -5z m-1898 -23 c26 -28 15 -31 -12 -3 -12 13 -19 23 -14 23 4 0 16&#10;-9 26 -20z m-970 -39 c-21 -68 -34 -102 -30 -81 3 14 8 42 11 63 4 20 11 37&#10;16 37 5 0 7 -8 3 -19z m3090 -31 c10 -11 16 -20 13 -20 -3 0 -13 9 -23 20 -10&#10;11 -16 20 -13 20 3 0 13 -9 23 -20z m120 -110 c21 -22 37 -40 34 -40 -3 0 -23&#10;18 -44 40 -21 22 -37 40 -34 40 3 0 23 -18 44 -40z m-1858 -62 c-3 -8 -6 -5&#10;-6 6 -1 11 2 17 5 13 3 -3 4 -12 1 -19z m633 -41 c74 -1 -37 -4 -247 -5 -211&#10;-1 -383 1 -383 6 0 6 287 6 630 -1z m173 -4 c-7 -2 -19 -2 -25 0 -7 3 -2 5 12&#10;5 14 0 19 -2 13 -5z m404 -9 c-3 -3 -12 -4 -19 -1 -8 3 -5 6 6 6 11 1 17 -2&#10;13 -5z m788 -34 c10 -11 16 -20 13 -20 -3 0 -13 9 -23 20 -10 11 -16 20 -13&#10;20 3 0 13 -9 23 -20z m-644 -27 c13 -16 12 -17 -3 -4 -10 7 -18 15 -18 17 0 8&#10;8 3 21 -13z m-5021 -27 c0 -2 -8 -10 -17 -17 -16 -13 -17 -12 -4 4 13 16 21&#10;21 21 13z m1310 -64 c0 -15 9 -46 19 -69 l19 -41 -56 -10 c-32 -6 -58 -9 -60&#10;-7 -2 1 12 39 30 83 32 81 48 94 48 44z m-1952 -139 c-21 -2 -55 -2 -75 0 -21&#10;2 -4 4 37 4 41 0 58 -2 38 -4z m76 -19 c19 -19 30 -56 23 -81 -3 -10 -5 -3 -6&#10;15 -1 20 -10 42 -26 57 -13 14 -20 25 -15 25 5 0 16 -7 24 -16z m4781 -4 c506&#10;-5 1066 -16 1245 -24 179 -8 456 -20 615 -25 160 -6 326 -14 370 -17 44 -4 93&#10;-6 109 -5 18 1 39 -7 54 -21 30 -29 97 -125 106 -155 7 -22 5 -23 -43 -23 -47&#10;0 -51 2 -57 28 -13 62 -37 123 -54 144 -22 26 -27 12 -6 -17 14 -21 46 -118&#10;46 -142 0 -10 -34 -13 -157 -13 -178 0 -219 -8 -268 -52 -74 -64 -146 -270&#10;-126 -358 11 -49 33 -84 66 -106 29 -19 170 -33 333 -34 l114 0 -7 -32 c-27&#10;-132 -39 -172 -58 -191 -20 -20 -24 -20 -676 -13 -1286 12 -2197 28 -2247 37&#10;-52 10 -88 38 -114 89 -16 31 -40 118 -40 148 l0 22 268 0 c147 0 285 5 306&#10;10 22 5 53 23 70 40 30 29 31 34 30 108 -1 102 -47 222 -113 295 -59 65 -113&#10;75 -495 96 -93 6 -172 13 -175 18 -4 4 -15 40 -25 78 -9 39 -26 82 -37 97 -10&#10;15 -19 29 -19 31 0 1 15 2 33 0 17 -2 446 -7 952 -13z m-5065 -13 c0 -2 -10&#10;-12 -22 -23 l-23 -19 19 23 c18 21 26 27 26 19z m1087 -33 c-3 -3 -12 -4 -19&#10;-1 -8 3 -5 6 6 6 11 1 17 -2 13 -5z m-790 -86 c-3 -7 -5 -2 -5 12 0 14 2 19 5&#10;13 2 -7 2 -19 0 -25z m-360 -35 c-3 -10 -5 -2 -5 17 0 19 2 27 5 18 2 -10 2&#10;-26 0 -35z m350 -5 c-3 -8 -6 -5 -6 6 -1 11 2 17 5 13 3 -3 4 -12 1 -19z m486&#10;5 c-7 -2 -21 -2 -30 0 -10 3 -4 5 12 5 17 0 24 -2 18 -5z m-56 -9 c-3 -3 -12&#10;-4 -19 -1 -8 3 -5 6 6 6 11 1 17 -2 13 -5z m-52 -14 c-27 -12 -43 -12 -25 0 8&#10;5 22 9 30 9 10 0 8 -3 -5 -9z m-660 -45 c30 -12 33 -14 10 -9 -37 7 -75 30&#10;-75 46 0 7 6 4 13 -5 6 -9 30 -24 52 -32z m265 1 c-11 -34 -51 -59 -67 -42 -4&#10;3 3 6 14 6 25 0 39 16 48 53 4 15 10 26 12 23 3 -3 0 -21 -7 -40z m1422 -3&#10;c-93 -132 -143 -363 -187 -868 -9 -99 -17 -180 -18 -181 -1 0 -171 -9 -377&#10;-18 -837 -38 -1199 -55 -1279 -62 l-84 -6 7 123 c11 191 43 389 82 510 38 118&#10;82 188 172 272 45 41 57 47 94 47 24 0 156 16 293 35 138 19 374 51 525 70&#10;151 20 390 53 530 73 140 21 257 37 259 36 2 -2 -6 -15 -17 -31z m-1112 -8&#10;c-7 -8 -17 -15 -23 -15 -6 0 -2 7 9 15 25 19 30 19 14 0z m-487 -12 c-7 -2&#10;-19 -2 -25 0 -7 3 -2 5 12 5 14 0 19 -2 13 -5z m80 -10 c-13 -2 -33 -2 -45 0&#10;-13 2 -3 4 22 4 25 0 35 -2 23 -4z m3945 -10 c3 -10 -30 -13 -141 -13 -79 0&#10;-173 3 -208 7 -62 7 -63 8 -24 14 75 12 368 5 373 -8z m292 -3 c56 -6 46 -7&#10;-67 -8 -79 -1 -134 2 -138 8 -7 12 104 12 205 0z m-712 -13 c8 -9 -1 -33 -35&#10;-92 -69 -120 -61 -115 -170 -115 l-94 0 28 51 c33 62 93 113 170 145 66 27 86&#10;29 101 11z m-3633 -23 c14 -6 13 -8 -6 -21 -15 -12 -20 -23 -17 -44 4 -25 -6&#10;-40 -66 -102 -101 -104 -152 -210 -191 -394 -18 -90 -45 -341 -45 -426 l0 -64&#10;-50 -5 c-64 -6 -94 -31 -86 -72 10 -47 25 -58 70 -53 44 6 1283 62 1611 73&#10;l200 7 0 -179 c0 -176 1 -181 34 -277 27 -80 32 -106 26 -145 -3 -26 -10 -54&#10;-15 -61 -12 -20 -1617 -11 -1630 9 -5 8 -13 40 -19 73 -6 33 -28 91 -50 132&#10;-45 83 -59 142 -68 273 -3 50 -9 92 -14 92 -9 0 -2 -99 16 -206 8 -54 26 -108&#10;54 -165 22 -46 47 -112 54 -146 l14 -63 -96 0 c-145 0 -134 -9 -171 143 -42&#10;173 -138 479 -185 592 -74 180 -153 295 -232 342 -42 24 -58 28 -128 28 -68 0&#10;-88 -5 -133 -28 -70 -37 -123 -86 -154 -144 -38 -69 -95 -240 -113 -336 -40&#10;-216 -55 -502 -35 -666 6 -46 9 -85 6 -88 -13 -13 -45 41 -52 88 -10 75 -12&#10;457 -3 612 10 158 21 199 69 262 21 28 56 97 79 155 75 189 155 284 337 403&#10;192 126 355 202 704 333 183 68 245 83 285 68z m7351 -96 c-6 -105 -9 -112&#10;-15 -33 -5 62 1 105 14 105 3 0 3 -33 1 -72z m206 12 c35 -70 47 -137 24 -137&#10;-11 0 -18 17 -26 56 -18 99 -21 104 -67 116 -61 15 -65 27 -8 23 49 -3 50 -3&#10;77 -58z m-3372 -427 c14 -80 43 -153 73 -182 43 -39 86 -49 257 -55 510 -20&#10;2716 -38 2757 -23 31 11 59 78 75 177 l14 85 146 0 145 1 12 -105 c14 -124 29&#10;-162 80 -216 21 -22 44 -50 50 -62 14 -28 15 -306 1 -428 -9 -76 -18 -105 -60&#10;-190 -33 -65 -50 -113 -50 -137 0 -56 -17 -67 -97 -61 -141 9 -194 22 -234 57&#10;l-36 34 -754 7 c-415 4 -1096 5 -1514 3 -817 -3 -769 0 -855 -54 -57 -37 -101&#10;-42 -415 -54 -165 -5 -367 -15 -449 -21 -136 -10 -151 -10 -162 5 -6 9 -49&#10;128 -94 264 -135 402 -195 547 -282 674 l-39 58 33 20 c30 18 51 20 233 20&#10;255 0 254 -1 290 168 l18 82 422 0 423 0 12 -67z m-1616 -457 c114 -48 227&#10;-279 241 -491 l4 -70 -10 69 c-32 228 -112 402 -214 461 -199 117 -406 -149&#10;-447 -572 -26 -267 36 -565 142 -683 38 -42 51 -33 16 12 -75 100 -125 281&#10;-132 488 -3 80 -2 169 3 199 6 40 8 5 8 -130 0 -189 7 -244 47 -369 30 -95 64&#10;-156 114 -210 132 -141 265 -96 370 125 32 67 84 245 84 288 0 11 3 17 6 14&#10;10 -10 -14 -121 -47 -223 -52 -160 -136 -273 -233 -315 -45 -19 -55 -20 -103&#10;-9 -251 56 -377 644 -234 1091 49 151 144 290 224 324 42 18 119 19 161 1z&#10;m-3477 -37 c48 -23 98 -80 133 -149 38 -74 70 -182 75 -245 l4 -60 -9 60 c-20&#10;125 -80 264 -144 333 -32 36 -90 62 -139 62 -167 0 -308 -255 -324 -590 -8&#10;-164 21 -349 73 -468 25 -57 79 -132 95 -132 6 0 19 -9 31 -20 12 -11 26 -20&#10;31 -20 6 0 -6 12 -26 28 -20 15 -36 31 -37 35 0 5 -11 23 -25 41 -74 97 -116&#10;273 -113 478 l1 133 8 -165 c10 -237 53 -378 146 -481 47 -52 81 -69 138 -69&#10;25 0 58 6 74 14 72 38 146 159 187 311 26 91 32 84 8 -9 -8 -33 -35 -102 -59&#10;-152 -119 -246 -307 -278 -437 -74 -37 58 -83 202 -98 309 -18 117 -8 363 18&#10;461 81 305 230 446 389 369z m3110 -421 c-3 -8 -6 -5 -6 6 -1 11 2 17 5 13 3&#10;-3 4 -12 1 -19z m-10 -50 c-3 -7 -5 -2 -5 12 0 14 2 19 5 13 2 -7 2 -19 0 -25z&#10;m-3460 -30 c-3 -7 -5 -2 -5 12 0 14 2 19 5 13 2 -7 2 -19 0 -25z m3943 -4 c0&#10;-2 -9 0 -20 6 -11 6 -20 13 -20 16 0 2 9 0 20 -6 11 -6 20 -13 20 -16z m-3363&#10;-36 c-3 -8 -6 -5 -6 6 -1 11 2 17 5 13 3 -3 4 -12 1 -19z m3510 -140 c-2 -24&#10;-4 -5 -4 42 0 47 2 66 4 43 2 -24 2 -62 0 -85z m-3510 -40 c-2 -18 -4 -4 -4&#10;32 0 36 2 50 4 33 2 -18 2 -48 0 -65z m7827 -38 l21 -20 -38 19 c-30 15 -44&#10;17 -67 10 -86 -31 -75 -228 13 -229 20 0 68 51 79 84 5 13 6 4 4 -22 -6 -57&#10;-29 -82 -76 -82 -39 0 -120 50 -120 75 0 10 -9 11 -37 5 -21 -5 -67 -10 -103&#10;-12 l-65 -3 -3 42 c-4 48 -8 45 118 67 53 9 89 11 95 5 5 -6 5 -9 -3 -9 -7 0&#10;-12 -10 -12 -22 0 -21 0 -21 21 3 11 13 16 25 10 27 -6 2 -11 7 -11 12 0 15&#10;53 72 74 80 27 10 75 -5 100 -30z m-4327 -37 c-2 -16 -4 -5 -4 22 0 28 2 40 4&#10;28 2 -13 2 -35 0 -50z m-3510 -10 c-3 -10 -5 -2 -5 17 0 19 2 27 5 18 2 -10 2&#10;-26 0 -35z m7864 -140 c-12 -20 -14 -14 -5 12 4 9 9 14 11 11 3 -2 0 -13 -6&#10;-23z m-6361 -128 c371 -8 797 -17 947 -21 316 -8 294 0 339 -124 14 -41 37&#10;-96 50 -122 13 -26 24 -49 24 -51 0 -2 -312 -7 -692 -10 -1477 -15 -1754 -18&#10;-1781 -22 -27 -5 -27 -4 20 49 59 67 114 158 150 247 l28 69 120 0 c66 0 424&#10;-7 795 -15z m4904 -11 c26 -10 89 -14 200 -14 115 0 167 -4 177 -12 9 -7 28&#10;-45 43 -85 32 -85 92 -181 149 -242 l42 -43 -245 6 c-135 4 -452 13 -705 21&#10;-253 8 -712 21 -1020 30 -848 22 -986 27 -983 34 28 54 62 137 78 192 l21 69&#10;130 0 c115 0 140 3 207 26 l76 26 395 -6 c218 -3 558 -7 757 -8 329 -3 362 -1&#10;385 14 21 16 39 17 139 12 63 -4 132 -13 154 -20z"/>
<path d="M5031 5590 c-49 -12 -82 -39 -119 -101 -44 -73 -63 -137 -69 -239 -5&#10;-75 -3 -88 15 -110 19 -23 26 -25 110 -25 76 0 95 3 119 21 69 51 129 195 140&#10;335 6 74 4 81 -17 104 -20 22 -32 25 -84 24 -34 -1 -76 -5 -95 -9z m166 -26&#10;c24 -24 25 -29 18 -96 -13 -133 -60 -254 -120 -306 -34 -31 -40 -32 -120 -32&#10;-107 0 -125 13 -125 93 0 63 30 189 59 245 23 45 81 99 114 107 100 21 144 19&#10;174 -11z"/>
<path d="M2855 5840 c-3 -5 -1 -10 4 -10 6 0 11 5 11 10 0 6 -2 10 -4 10 -3 0&#10;-8 -4 -11 -10z"/>
<path d="M2925 5839 c-4 -6 -5 -12 -2 -15 2 -3 7 2 10 11 7 17 1 20 -8 4z"/>
<path d="M2890 5831 c0 -6 4 -13 10 -16 6 -3 7 1 4 9 -7 18 -14 21 -14 7z"/>
<path d="M3588 5813 c7 -3 16 -2 19 1 4 3 -2 6 -13 5 -11 0 -14 -3 -6 -6z"/>
<path d="M5028 6145 c-6 -13 -14 -22 -18 -20 -11 7 -72 -25 -92 -48 -9 -10&#10;-21 -16 -26 -13 -5 3 -9 -1 -9 -9 0 -18 -3 -18 41 0 23 10 34 20 30 27 -4 7&#10;-3 8 5 4 17 -11 58 19 76 54 9 17 13 30 10 30 -3 0 -10 -11 -17 -25z"/>
<path d="M4065 5869 c-12 -18 3 -22 42 -10 l38 10 -38 -5 c-26 -4 -37 -2 -32&#10;5 3 6 4 11 1 11 -3 0 -8 -5 -11 -11z"/>
<path d="M7891 5732 l-33 -3 7 -67 c4 -37 12 -70 19 -75 6 -4 36 -6 66 -5 l55&#10;3 -3 65 c-1 35 -5 67 -10 71 -11 10 -62 16 -101 11z m100 -48 c4 -16 7 -41 8&#10;-56 1 -23 -3 -28 -24 -28 -26 0 -28 5 -39 87 -6 41 -6 41 22 34 19 -5 29 -16&#10;33 -37z m-67 9 c3 -16 7 -44 8 -63 3 -32 1 -35 -22 -32 -14 2 -26 5 -26 5 -1&#10;1 -5 28 -8 60 -7 56 -7 57 17 57 20 0 27 -6 31 -27z"/>
<path d="M7300 5521 c-76 -16 -110 -54 -110 -123 0 -62 15 -76 17 -16 0 28 6&#10;55 11 60 11 11 1303 -7 1389 -18 23 -4 50 -12 59 -18 15 -12 14 -16 -14 -47&#10;l-30 -34 -154 -6 -153 -6 150 1 c133 1 153 3 177 21 40 30 51 60 34 94 -37 71&#10;-88 77 -711 85 -236 4 -475 8 -530 10 -55 3 -116 1 -135 -3z"/>
<path d="M7933 5423 c9 -2 23 -2 30 0 6 3 -1 5 -18 5 -16 0 -22 -2 -12 -5z"/>
<path d="M7474 5395 c-9 -21 25 -414 37 -437 9 -16 38 -18 405 -20 313 -2 398&#10;0 406 10 8 9 8 66 -1 195 -14 217 -18 242 -34 255 -7 5 -172 10 -410 11 -358&#10;2 -398 1 -403 -14z"/>
<path d="M3268 5303 c6 -2 18 -2 25 0 6 3 1 5 -13 5 -14 0 -19 -2 -12 -5z"/>
<path d="M3349 5258 c1 -27 -1 -54 -6 -59 -5 -5 -56 -11 -113 -13 -77 -4 -93&#10;-3 -60 4 25 5 71 9 103 9 32 1 56 5 53 9 -7 12 -164 3 -198 -10 -16 -6 -28&#10;-17 -28 -24 0 -19 239 -11 252 8 10 16 11 115 1 121 -5 3 -6 -17 -4 -45z"/>
<path d="M3139 5273 c-13 -16 -12 -17 4 -4 9 7 17 15 17 17 0 8 -8 3 -21 -13z"/>
<path d="M3113 5233 c-3 -10 -8 -22 -11 -27 -3 -5 0 -6 5 -3 11 7 25 47 17 47&#10;-3 0 -7 -8 -11 -17z"/>
<path d="M3100 5121 c0 -6 4 -13 10 -16 6 -3 7 1 4 9 -7 18 -14 21 -14 7z"/>
<path d="M3278 5103 c7 -3 16 -2 19 1 4 3 -2 6 -13 5 -11 0 -14 -3 -6 -6z"/>
<path d="M3148 5093 c12 -2 30 -2 40 0 9 3 -1 5 -23 4 -22 0 -30 -2 -17 -4z"/>
<path d="M4370 3186 c0 -2 8 -10 18 -17 15 -13 16 -12 3 4 -13 16 -21 21 -21&#10;13z"/>
</g>
</svg>